# xmcd CD database file
#
# Track frame offsets:
#	150
#	14017
#	33687
#	45565
#	57560
#	77237
#	92397
#	118977
#	143707
#	156967
#	179335
#	192357
#	217075
#	230160
#	242702
#	263452
#
# Disc length: 3785 seconds
#
# Revision: 0
# Processed by: cddbd v1.4PL0 Copyright (c) Steve Scherf et al.
# Submitted via: CDex 1.51
#
DISCID=e90ec710
DTITLE=The Couriers - Special Delivery
DYEAR=2002
DGENRE=Jazz
TTITLE0=Air Mail Special
TTITLE1=Tuxedo Junction
TTITLE2=It Had to be You
TTITLE3=Flying Home
TTITLE4=The Very Thought of You
TTITLE5=The Way You Look Tonight
TTITLE6=Sophisticated Lady
TTITLE7=I'll Close My Eyes
TTITLE8=Have You Met Miss Jones?
TTITLE9=Stormy Weather
TTITLE10=Dark Eyes
TTITLE11=When I Fall In Love
TTITLE12=Cherry
TTITLE13=It Don't Mean A Thing, If It Ain't Got That Swing
TTITLE14=When Sunny Gets Blue
TTITLE15=Wonderful World
EXTD=YEAR: 2002
EXTT0=
EXTT1=
EXTT2=
EXTT3=
EXTT4=
EXTT5=
EXTT6=
EXTT7=
EXTT8=
EXTT9=
EXTT10=
EXTT11=
EXTT12=
EXTT13=
EXTT14=
EXTT15=
PLAYORDER=
